<?xml version="1.0" standalone="no"?>
<!DOCTYPE svg PUBLIC "-//W3C//DTD SVG 20010904//EN"
 "http://www.w3.org/TR/2001/REC-SVG-20010904/DTD/svg10.dtd">
<svg version="1.0" xmlns="http://www.w3.org/2000/svg"
 width="700.000000pt" height="700.000000pt" viewBox="0 0 700.000000 700.000000"
 preserveAspectRatio="xMidYMid meet">
<metadata>
Created by potrace 1.14, written by Peter Selinger 2001-2017
</metadata>
<g transform="translate(0.000000,700.000000) scale(0.100000,-0.100000)"
fill="#000000" stroke="none">
<path d="M3403 4690 c-205 -26 -370 -133 -455 -295 -46 -89 -66 -158 -74 -256
l-7 -79 175 0 176 0 6 54 c11 83 58 155 125 189 46 23 67 27 135 27 163 -1
247 -84 233 -230 -9 -99 -34 -139 -191 -299 -106 -109 -152 -163 -175 -209
-38 -75 -61 -160 -61 -224 l0 -48 168 2 167 3 6 50 c14 112 58 174 240 340
224 203 277 306 267 515 -4 87 -9 107 -41 175 -65 136 -176 220 -351 265 -91
23 -245 32 -343 20z"/>
<path d="M4260 4176 l0 -83 513 -227 c281 -125 516 -231 520 -235 4 -4 -226
-111 -513 -237 l-520 -229 0 -87 c0 -87 0 -88 23 -78 12 6 283 127 602 269
l580 259 3 99 3 99 -598 267 c-329 147 -601 267 -605 267 -5 0 -8 -38 -8 -84z"/>
<path d="M2123 3983 l-593 -266 0 -97 0 -97 298 -133 c163 -74 435 -195 605
-271 l307 -137 0 87 0 88 -515 228 c-284 125 -518 231 -520 234 -2 4 230 110
516 235 l519 229 0 84 c0 60 -3 83 -12 82 -7 0 -280 -120 -605 -266z"/>
<path d="M3334 3191 c-26 -11 -54 -49 -54 -73 0 -30 -29 -50 -64 -42 -78 18
-109 -3 -162 -111 -39 -79 -38 -100 10 -144 33 -31 33 -48 -3 -86 -16 -16 -32
-40 -35 -51 -8 -26 53 -148 90 -181 27 -24 72 -30 104 -13 15 8 24 6 40 -10
11 -11 20 -29 20 -40 0 -12 11 -32 25 -45 22 -23 32 -25 117 -25 109 0 131 11
149 71 14 44 37 63 60 48 24 -15 75 -10 101 10 14 11 42 53 62 94 36 71 37 75
23 108 -8 19 -24 43 -36 53 -27 25 -27 29 8 68 45 52 47 71 11 141 -54 103
-95 136 -147 116 -43 -16 -68 -4 -81 39 -19 63 -42 77 -136 79 -44 2 -91 -1
-102 -6z m185 -278 c69 -52 89 -138 49 -207 -37 -62 -69 -81 -142 -81 -53 0
-68 4 -98 27 -110 84 -70 259 65 287 40 9 93 -2 126 -26z"/>
<path d="M3385 2858 c-51 -29 -60 -89 -21 -134 48 -57 146 -22 146 52 0 46 -9
63 -41 79 -33 18 -57 18 -84 3z"/>
</g>
</svg>
